<svg width="20" height="20" viewBox="0 0 20 20" fill="none" xmlns="http://www.w3.org/2000/svg">
<path d="M17.5 5C17.6326 5 17.7598 5.05268 17.8536 5.14645C17.9473 5.24021 18 5.36739 18 5.5C18 5.63261 17.9473 5.75979 17.8536 5.85355C17.7598 5.94732 17.6326 6 17.5 6H2.5C2.36739 6 2.24021 5.94732 2.14645 5.85355C2.05268 5.75979 2 5.63261 2 5.5C2 5.36739 2.05268 5.24021 2.14645 5.14645C2.24021 5.05268 2.36739 5 2.5 5H17.5ZM17.5 8C17.6326 8 17.7598 8.05268 17.8536 8.14645C17.9473 8.24021 18 8.36739 18 8.5C18 8.63261 17.9473 8.75979 17.8536 8.85355C17.7598 8.94732 17.6326 9 17.5 9H2.5C2.36739 9 2.24021 8.94732 2.14645 8.85355C2.05268 8.75979 2 8.63261 2 8.5C2 8.36739 2.05268 8.24021 2.14645 8.14645C2.24021 8.05268 2.36739 8 2.5 8H17.5ZM9 14.5C9 14.332 9.008 14.165 9.022 14H2.5C2.36739 14 2.24021 14.0527 2.14645 14.1464C2.05268 14.2402 2 14.3674 2 14.5C2 14.6326 2.05268 14.7598 2.14645 14.8536C2.24021 14.9473 2.36739 15 2.5 15H9.022C9.00718 14.8337 8.99984 14.6669 9 14.5ZM9.6 12C9.783 11.642 10.004 11.307 10.257 11H2.5C2.36739 11 2.24021 11.0527 2.14645 11.1464C2.05268 11.2402 2 11.3674 2 11.5C2 11.6326 2.05268 11.7598 2.14645 11.8536C2.24021 11.9473 2.36739 12 2.5 12H9.6ZM14.5 10C15.6935 10 16.8381 10.4741 17.682 11.318C18.5259 12.1619 19 13.3065 19 14.5C19 15.6935 18.5259 16.8381 17.682 17.682C16.8381 18.5259 15.6935 19 14.5 19C13.3065 19 12.1619 18.5259 11.318 17.682C10.4741 16.8381 10 15.6935 10 14.5C10 13.3065 10.4741 12.1619 11.318 11.318C12.1619 10.4741 13.3065 10 14.5 10ZM13.379 15.769L12.38 14.542L12.317 14.478C12.222 14.3974 12.1004 14.3552 11.9759 14.3595C11.8514 14.3639 11.733 14.4146 11.644 14.5017C11.5549 14.5888 11.5015 14.7059 11.4943 14.8303C11.4871 14.9547 11.5266 15.0772 11.605 15.174L12.945 16.819L13.011 16.886C13.1051 16.9651 13.225 17.0068 13.3478 17.0031C13.4707 16.9994 13.5879 16.9506 13.677 16.866L17.189 13.225L17.249 13.157C17.3232 13.0562 17.3568 12.9312 17.3433 12.8067C17.3298 12.6822 17.2701 12.5674 17.1759 12.4848C17.0818 12.4023 16.9602 12.358 16.835 12.3609C16.7099 12.3637 16.5903 12.4133 16.5 12.5L13.379 15.769Z" fill="#262626"/>
</svg>
