<svg width="13" height="13" viewBox="0 0 13 13" fill="none" xmlns="http://www.w3.org/2000/svg">
<path d="M10.207 9.74245C10.2422 9.77763 10.2619 9.82535 10.2619 9.8751C10.2619 9.92486 10.2422 9.97258 10.207 10.0078C10.1718 10.0429 10.1241 10.0627 10.0743 10.0627C10.0246 10.0627 9.97685 10.0429 9.94167 10.0078L6.69932 6.76542L3.45698 10.0078C3.4218 10.0429 3.37408 10.0627 3.32432 10.0627C3.27457 10.0627 3.22685 10.0429 3.19167 10.0078C3.15648 9.97258 3.13672 9.92486 3.13672 9.8751C3.13672 9.82535 3.15648 9.77763 3.19167 9.74245L6.43401 6.5001L3.19167 3.25776C3.15648 3.22258 3.13672 3.17486 3.13672 3.1251C3.13672 3.07535 3.15648 3.02763 3.19167 2.99245C3.22685 2.95727 3.27457 2.9375 3.32432 2.9375C3.37408 2.9375 3.4218 2.95727 3.45698 2.99245L6.69932 6.23479L9.94167 2.99245C9.95909 2.97503 9.97977 2.96121 10.0025 2.95178C10.0253 2.94235 10.0497 2.9375 10.0743 2.9375C10.099 2.9375 10.1234 2.94235 10.1461 2.95178C10.1689 2.96121 10.1896 2.97503 10.207 2.99245C10.2244 3.00987 10.2382 3.03055 10.2476 3.05331C10.2571 3.07607 10.2619 3.10047 10.2619 3.1251C10.2619 3.14974 10.2571 3.17414 10.2476 3.1969C10.2382 3.21966 10.2244 3.24034 10.207 3.25776L6.96464 6.5001L10.207 9.74245Z" fill="#FF3B30" stroke="#FF3B30" stroke-width="0.2"/>
</svg>
