<svg width="25" height="24" viewBox="0 0 25 24" fill="none" xmlns="http://www.w3.org/2000/svg">
<path d="M11.9052 21.77C10.5132 21.77 9.32552 21.278 8.34219 20.294C7.35885 19.3107 6.86719 18.123 6.86719 16.731V5.61504C6.86719 4.61037 7.22485 3.75037 7.94019 3.03504C8.65552 2.3197 9.51552 1.96204 10.5202 1.96204C11.5255 1.96204 12.3855 2.3197 13.1002 3.03504C13.8162 3.75037 14.1742 4.61037 14.1742 5.61504V14.115H13.2902V5.61504C13.2902 4.8397 13.0222 4.18437 12.4862 3.64904C11.9502 3.1137 11.2945 2.84604 10.5192 2.84604C9.74319 2.84604 9.08785 3.1137 8.55319 3.64904C8.01852 4.18437 7.75119 4.8397 7.75119 5.61504V16.731C7.75119 17.8824 8.15719 18.8624 8.96919 19.671C9.78119 20.4804 10.7575 20.885 11.8982 20.885C12.3989 20.885 12.8715 20.8024 13.3162 20.637C13.7609 20.4717 14.1622 20.2417 14.5202 19.947V21.035C14.1369 21.2697 13.7245 21.4507 13.2832 21.578C12.8412 21.7054 12.3819 21.769 11.9052 21.769M16.9052 17.5H14.4052C14.2632 17.5 14.1445 17.452 14.0492 17.356C13.9532 17.26 13.9052 17.141 13.9052 16.999C13.9052 16.857 13.9532 16.7384 14.0492 16.643C14.1452 16.5477 14.2639 16.5 14.4052 16.5H16.9052V14C16.9052 13.858 16.9532 13.7394 17.0492 13.644C17.1452 13.548 17.2642 13.5 17.4062 13.5C17.5482 13.5 17.6669 13.548 17.7622 13.644C17.8575 13.74 17.9052 13.8587 17.9052 14V16.5H20.4052C20.5472 16.5 20.6659 16.548 20.7612 16.644C20.8572 16.74 20.9052 16.859 20.9052 17.001C20.9052 17.143 20.8572 17.2617 20.7612 17.357C20.6659 17.4524 20.5472 17.5 20.4052 17.5H17.9052V20C17.9052 20.142 17.8572 20.2607 17.7612 20.356C17.6652 20.452 17.5462 20.5 17.4042 20.5C17.2622 20.5 17.1435 20.452 17.0482 20.356C16.9529 20.2607 16.9052 20.142 16.9052 20V17.5ZM11.9052 17V17.885C11.2692 17.885 10.7319 17.6657 10.2932 17.227C9.85519 16.7877 9.63619 16.2504 9.63619 15.615V6.05804C9.63619 5.93004 9.67785 5.82437 9.76119 5.74104C9.84452 5.65704 9.94985 5.61504 10.0772 5.61504C10.2045 5.61504 10.3102 5.65704 10.3942 5.74104C10.4782 5.82437 10.5202 5.93004 10.5202 6.05804V15.615C10.5202 16.0077 10.6529 16.3367 10.9182 16.602C11.1842 16.8674 11.5132 17 11.9052 17ZM16.0592 11.23V6.05904C16.0592 5.93104 16.1009 5.82537 16.1842 5.74204C16.2675 5.65804 16.3729 5.61604 16.5002 5.61604C16.6282 5.61604 16.7342 5.65804 16.8182 5.74204C16.9015 5.82537 16.9432 5.93104 16.9432 6.05904V11.232L16.0592 11.23Z" fill="#007AFF"/>
</svg>
