<svg width="18" height="18" viewBox="0 0 18 18" fill="none" xmlns="http://www.w3.org/2000/svg">
<path opacity="0.5" d="M6.69922 0C8.42313 0 10.0764 0.684819 11.2954 1.90381C12.5144 3.12279 13.1992 4.77609 13.1992 6.5C13.1992 8.11 12.6092 9.59 11.6392 10.73L11.9092 11H12.6992L17.6992 16L16.1992 17.5L11.1992 12.5V11.71L10.9292 11.44C9.78922 12.41 8.30922 13 6.69922 13C4.97531 13 3.32201 12.3152 2.10302 11.0962C0.884038 9.87721 0.199219 8.22391 0.199219 6.5C0.199219 4.77609 0.884038 3.12279 2.10302 1.90381C3.32201 0.684819 4.97531 0 6.69922 0ZM6.69922 2C4.19922 2 2.19922 4 2.19922 6.5C2.19922 9 4.19922 11 6.69922 11C9.19922 11 11.1992 9 11.1992 6.5C11.1992 4 9.19922 2 6.69922 2Z" fill="black"/>
</svg>
