<svg width="310" height="769" viewBox="0 0 310 769" fill="none" xmlns="http://www.w3.org/2000/svg">
<path d="M-31.6814 1.40483C-34.4308 7.25375 -36.6619 13.8855 -37.8585 19.7913C-39.276 26.7793 -38.9887 32.1057 -36.7027 40.6651C-36.0169 43.2861 -35.2083 46.0586 -34.9017 46.816C-34.2973 48.3741 -34.1392 48.3524 -36.6143 47.2314C-41.7242 44.9296 -47.689 43.715 -52.7781 43.9249C-54.8231 44.0195 -59.2495 45.0147 -61.0277 45.7955C-66.3187 48.1466 -71.299 52.5638 -73.935 57.2364C-75.239 59.5485 -76.3615 63.1425 -76.331 64.8535C-76.312 65.3806 -76.3068 65.3996 -74.9753 65.1677C-67.2334 63.9236 -57.2352 65.2708 -49.7105 68.5461C-40.6698 72.502 -32.1301 80.1525 -26.7723 89.0805C-23.6426 94.3043 -21.2612 100.403 -20.3802 105.346C-19.7042 109.3 -19.6483 109.203 -21.3958 107.663C-24.4025 105.026 -29.2679 101.881 -32.9832 100.19C-34.0152 99.708 -34.9066 99.2906 -34.9795 99.2486C-35.3487 99.0196 -37.9268 98.0487 -39.9952 97.3719C-44.9978 95.6964 -50.0999 94.6408 -55.4124 94.1735C-56.2738 94.096 -57.3279 93.988 -57.7273 93.9512C-58.9065 93.8356 -63.635 93.7857 -65.5219 93.8587C-74.1832 94.2016 -84.4601 96.0803 -92.0191 98.6877C-108.908 104.559 -120.787 116.544 -126.698 133.714C-130.028 143.34 -130.979 153.887 -129.564 165.298C-129.021 169.595 -126.424 179.463 -124.777 183.445C-121.162 192.141 -117.038 198.696 -110.655 205.878C-101.698 215.914 -92.4591 223.951 -81.2712 231.387C-76.569 234.534 -67.4006 239.725 -62.4004 242.076C-62.0032 242.257 -60.8984 242.781 -59.9341 243.241C-53.7754 246.164 -44.144 250.105 -35.7394 253.146C-34.2161 253.702 -31.9675 254.515 -30.734 254.985C-29.4864 255.43 -26.8509 256.386 -24.8347 257.097C-10.5618 262.135 -6.34491 263.938 1.26267 268.358C11.0496 274.018 18.9083 280.663 25.8626 289.125C32.1682 296.777 36.3571 306.16 36.3418 312.569C36.2902 330.94 37.7343 344.82 40.7394 354.907C42.0119 359.173 42.9111 361.368 44.7171 364.571C47.5555 369.627 50.3773 373.48 55.3247 379.059C57.2074 381.176 58.7092 382.946 58.6812 382.994C58.6532 383.042 58.1265 383.142 57.527 383.199C54.3483 383.575 47.8472 385.696 45.184 387.225C41.9881 389.058 39.1481 391.452 37.2931 393.85C33.7104 398.509 31.6207 404.98 31.7945 410.95C31.8611 412.795 32.5084 416.491 32.757 416.424C32.8527 416.399 33.4244 415.858 34.0468 415.201C35.717 413.487 36.029 413.199 37.499 412.112C43.0324 407.997 48.8823 406.807 54.4836 408.65C60.8242 410.727 64.9152 416.779 65.0299 424.28C65.1053 429.581 63.1307 434.425 59.7241 437.379C55.5421 441.031 49.0852 442.936 42.8385 442.349C37.8577 441.895 33.9703 440.25 30.2031 436.997C22.215 430.1 15.0552 426.81 7.05692 426.342C4.18068 426.167 2.36148 426.262 -0.954779 426.737C-3.67665 427.134 -5.117 427.191 -7.10532 426.963C-15.1454 426.036 -25.0973 420.829 -33.2566 413.22C-36.9796 409.75 -40.6537 404.713 -42.742 400.234C-43.8317 397.864 -45.0489 393.195 -45.3168 390.299C-46.3796 378.671 -42.1908 367.056 -34.4345 360.16C-30.8918 357.026 -25.8222 354.918 -21.1186 354.648C-11.1936 354.05 -4.14325 356.858 -0.297219 362.914C0.711714 364.528 1.94952 369.274 1.96229 371.603C2.01008 378.856 -0.73056 384.662 -5.20798 386.837C-6.59845 387.535 -9.85296 388.238 -11.5155 388.231C-14.288 388.212 -18.3263 386.996 -21.848 385.11C-22.396 384.826 -22.9094 384.595 -22.9859 384.615C-23.4067 384.727 -20.5074 390.77 -18.7447 393.431C-13.4374 401.411 -6.91391 404.851 0.985364 403.81C4.56571 403.327 9.96627 401.458 13.3432 399.535C19.0787 396.247 23.3704 392.013 26.4641 386.605C29.376 381.511 30.5429 376.636 30.177 370.942C30.0083 368.49 28.3155 362.208 26.9986 359.223C24.8803 354.405 22.1021 350.029 18.5807 346.014C17.4769 344.733 16.4281 343.58 16.2913 343.452C16.1354 343.33 15.2852 342.533 14.4004 341.684C12.397 339.803 8.82464 336.969 6.91449 335.738C5.45669 334.817 1.58405 332.922 0.260024 332.497C-0.146009 332.36 -0.524072 332.174 -0.588053 332.089C-0.67631 331.99 0.45074 331.607 2.55472 331.047C6.71929 329.917 8.70493 328.917 11.1969 326.677C16.0014 322.368 17.2915 316.049 15.079 307.838C12.5077 298.372 5.99107 290.469 -0.310714 289.222C-5.88499 288.087 -15.0752 292.173 -23.1626 299.363C-23.8718 300.002 -24.4972 300.496 -24.5266 300.463C-24.5752 300.435 -25.0178 299.325 -25.4927 298.019C-29.2665 287.666 -35.9585 280.71 -45.0162 277.68C-49.5451 276.164 -59.2234 274.711 -66.7236 274.418C-72.6468 274.195 -81.6244 274.581 -81.4957 275.058C-81.4751 275.135 -81.0316 275.487 -80.5168 275.801C-73.5073 280.359 -66.3971 288.943 -62.103 298.031C-58.1934 306.302 -56.4952 315.038 -57.0899 323.71C-57.6248 331.691 -59.255 338.879 -63.0987 350.177C-69.6615 369.566 -71.6441 384.727 -69.6171 400.314C-69.172 403.715 -66.3531 414.405 -65.1913 417.042C-62.0304 424.284 -58.1115 429.85 -52.4056 435.124C-45.1119 441.879 -35.0947 447.785 -25.0344 451.264C-23.5162 451.801 -22.2584 452.285 -22.2378 452.361C-22.2224 452.418 -22.9794 452.804 -23.8997 453.193C-27.5914 454.708 -31.8622 457.422 -34.536 459.976C-40.2477 465.407 -44.0835 473.919 -44.4905 482.071L-44.5835 483.856L-43.7371 485.247C-41.2619 489.335 -36.7306 493.674 -32.1623 496.325C-29.5166 497.851 -28.6685 498.259 -26.2669 499.031C-21.4776 500.6 -16.4791 500.967 -10.174 500.249L-9.09997 500.126L-10.2632 501.439C-16.2489 508.212 -21.9754 517.392 -25.0423 525.106C-28.0481 532.742 -29.4819 540.43 -29.187 547.535C-28.9966 551.741 -28.649 553.715 -26.8239 560.412C-25.0024 567.172 -24.462 568.645 -21.8127 574.14C-20.2017 577.456 -16.141 584.232 -14.4547 586.382C-14.2679 586.619 -13.4361 587.728 -12.6183 588.86C-9.02364 593.756 -1.55508 601.692 4.51853 607.113C13.0965 614.754 15.3352 616.9 19.0176 621.055C25.4256 628.25 29.2318 634.768 31.6195 642.563C34.3696 651.551 34.6925 662.107 32.5381 671.686C31.8306 674.842 30.3386 679.271 29.2133 681.638C28.7217 682.629 28.4619 683.414 28.5958 683.379C29.9155 683.027 37.1975 679.163 41.2748 676.644C48.7503 672.053 56.7905 665.45 60.1024 661.231C62.4651 658.207 64.6899 653.378 65.4991 649.458C66.4144 645.019 66.3083 639.072 65.2602 634.726C65.0375 633.823 64.8839 633.025 64.9015 632.938C64.9192 632.852 65.6798 632.936 66.6104 633.117C71.1239 634.043 75.4934 634.434 79.6372 634.292C82.7055 634.191 87.443 633.133 89.514 632.07C91.9661 630.823 93.6665 628.917 94.9449 625.977C98.2899 618.23 97.0205 606.064 92.0897 598.721C89.3798 594.675 85.0085 592.299 79.8879 592.087C77.3537 591.964 75.6956 592.201 72.6176 593.103C71.0734 593.535 69.825 593.847 69.8235 593.766C69.8412 593.679 70.4174 592.851 71.1311 591.924C72.9758 589.488 75.054 585.864 76.0946 583.336C80.9853 571.207 81.8051 559.262 78.4492 548.634C76.8341 543.477 74.4757 539.746 70.7159 536.368C65.6139 531.813 58.7077 529.008 51.1494 528.422C46.3819 528.076 42.6228 528.504 37.5762 530.013C34.5555 530.899 33.9258 531.149 32.5331 531.991C26.217 535.863 23.087 542.735 23.269 552.387C23.2965 554.467 23.7355 558.607 23.9789 559.053C24.0738 559.253 24.3806 558.946 25.0215 557.978C27.2445 554.663 29.4261 552.261 31.3919 550.959C38.5291 546.254 45.7245 548.307 51.2252 556.624C52.8791 559.11 53.6012 560.8 54.1979 563.547C54.7175 566.008 54.7437 567.475 54.2702 569.75C53.7474 572.222 52.2851 575.088 50.4537 577.193C48.5282 579.404 44.2558 582.569 40.9753 584.241C38.8992 585.285 34.3138 586.527 32.2342 586.57C20.5886 586.869 8.62617 578.841 2.31786 566.462C1.4465 564.75 1.16787 563.944 0.205687 560.374C-0.766797 556.765 -0.910086 556.005 -1.00092 554.146C-1.37577 545.528 1.00144 536.319 5.77882 527.802C10.4164 519.526 15.8015 514.1 21.4198 512.051C27.186 509.942 31.668 506.946 35.4125 502.736C38.8692 498.827 41.355 494.358 43.6184 487.922C44.6606 484.943 45.3605 483.508 46.5562 481.859C51.4421 475.114 60.8633 471.048 68.7077 472.315C71.1748 472.721 72.8887 473.452 74.8554 474.892C79.52 478.357 82.7393 484.293 82.7956 489.599C82.8457 492.676 82.2118 495.117 80.7614 497.57C79.2742 500.116 77.5834 501.753 74.7304 503.414C72.9617 504.458 68.4132 505.608 66.1114 505.587C63.1807 505.59 59.8124 505.035 56.9128 504.088L56.1493 503.841L56.8043 505.816C58.3776 510.513 61.6252 514.805 66.1044 518.114C71.2022 521.893 76.7889 523.453 83.6229 523.024C85.4178 522.914 86.5286 522.7 89.4794 521.935C91.4929 521.419 93.7344 520.76 94.4929 520.455L95.8532 519.95L95.5594 520.99C94.7835 523.816 93.4866 531.1 93.1107 534.802C92.706 538.777 92.6851 543.797 93.0235 547.411C93.3171 550.403 95.684 559.186 97.3133 563.254C100.398 571.049 104.465 579.522 108.607 586.83C112.709 594.066 112.714 594.085 113.476 596.379C116.324 605.198 115.47 617.93 111.171 630.884C108.116 640.089 104.364 647.392 97.7051 657.066C96.9281 658.214 92.5243 663.706 90.8812 665.596C89.9446 666.685 88.5701 668.279 87.8409 669.149C86.557 670.698 85.4651 671.972 82.3968 675.572C66.5132 694.151 56.4248 708.749 49.6645 722.994C44.0662 734.779 40.6222 745.05 38.0471 757.708C36.1119 767.187 35.8463 774.646 37.0971 784.157C37.5202 787.4 40.2361 797.708 41.4522 800.699C45.0902 809.635 49.4885 816.752 55.3295 823.136C59.8569 828.069 63.9036 831.371 69.5848 834.728C80.0823 840.895 91.2323 843.245 103.849 841.909C107.076 841.561 117.627 838.873 121.88 837.31C132.113 833.519 140.132 828.968 147.107 822.975C151.167 819.479 154.157 816.349 156.95 812.637C160.376 808.082 163.144 802.985 164.7 798.416C165.439 796.214 165.415 796.2 166.682 799.607C169.651 807.657 170.228 818.473 168.153 827.662C166.885 833.301 165.272 837.434 162.484 842.229C159.884 846.729 157.061 850.1 153.049 853.544C148.771 857.221 144.109 860.08 139.48 861.845C138.979 862.04 138.546 862.258 138.504 862.331C138.364 862.572 140.267 864.767 141.751 866.09C146.036 869.82 153.012 871.972 160.162 871.725C162.4 871.661 167.086 870.412 169.247 869.304C173.904 866.958 178.776 862.672 182.048 858.076C182.69 857.188 183.23 856.451 183.287 856.436C183.344 856.421 183.469 856.96 183.568 857.63C183.889 859.734 186.398 868.664 187.145 870.45C189.041 874.898 191.034 878.337 193.293 881.091C197.32 885.994 204.497 892.391 209.595 895.637L210.562 896.26L211.157 895.119C213.686 890.127 216.348 882.357 217.613 876.249C218.9 869.991 218.456 863.172 216.211 854.99C215.665 852.966 214.956 850.638 214.653 849.818C214.35 848.999 214.102 848.307 214.13 848.259C214.139 848.216 214.967 848.548 215.988 848.992C220.574 851.024 224.903 852.101 229.357 852.347C235.406 852.659 240.421 851.262 245.266 847.863C246.856 846.764 249.283 844.664 250.329 843.526C252.398 841.235 254.32 838.022 255.163 835.444C255.654 833.921 256.105 831.181 255.868 831.06C255.795 831.018 254.994 831.089 254.083 831.208C246.472 832.254 237.626 831.152 230.444 828.236C227.797 827.161 227.254 826.896 224.186 825.094C220.287 822.797 217.513 820.568 213.824 816.844C206.969 809.891 201.696 800.061 200.073 791.222C199.316 787.044 199.26 787.141 201.158 788.784C205.398 792.423 210.225 795.271 216.269 797.692C227.921 802.364 240.656 803.597 255.623 801.471C259.438 800.946 272.326 797.574 274.967 796.42C288.131 790.723 297.108 782.273 303.432 769.68C304.016 768.501 304.627 767.192 304.797 766.758C304.948 766.329 305.123 765.914 305.165 765.841C305.263 765.672 305.602 764.722 306.428 762.312C309.656 752.836 310.573 742.318 309.19 730.796C308.737 727.213 305.66 715.794 304.251 712.466C299.619 701.666 294.497 694.374 284.447 684.24C280.611 680.351 274.693 675.051 271.561 672.631C270.84 672.087 270.007 671.429 269.719 671.198C265.239 667.583 255.188 661.092 248.974 657.816C244.149 655.274 243.979 655.176 241.037 653.77C234.5 650.662 224.456 646.482 216.564 643.591C215.316 643.146 213.725 642.567 213.043 642.319C212.356 642.052 210.113 641.258 208.048 640.518C205.989 639.798 203.919 639.04 203.445 638.88C200.558 637.828 197.265 636.638 195.795 636.129C186.377 632.826 176.024 627.194 168.035 621.054C157.099 612.651 148.784 602.26 145.031 592.29C143.609 588.535 143.282 586.33 143.276 580.069C143.231 570.012 142.625 561.373 141.262 552.056C140.736 548.431 138.691 540.155 137.709 537.654C135.737 532.695 132.597 527.433 128.438 522.115C127.002 520.287 122.955 515.614 121.61 514.274C121.203 513.83 120.893 513.442 120.935 513.369C120.977 513.297 121.753 513.131 122.663 513.011C128.75 512.167 135.104 509.349 139.389 505.546C141.494 503.696 142.688 502.191 144.249 499.463C146.965 494.707 148.23 489.131 147.726 484.067C147.501 481.712 147.138 479.68 146.966 479.726C146.89 479.747 146.403 480.224 145.866 480.818C142.656 484.272 139.365 486.438 135.485 487.636C130.946 489.05 126.761 488.732 122.79 486.7C118.843 484.682 115.591 479.92 114.856 475.061C114.056 469.81 115.151 464.668 117.863 461.039C122.386 454.923 133.234 452.196 141.98 454.982C144.642 455.808 147.084 457.265 149.812 459.628C154.594 463.757 159.476 466.734 164.097 468.286C169.516 470.137 174.408 470.491 180.954 469.525C184.093 469.077 186.598 469.167 189.724 469.889C199.426 472.114 210.451 479.327 217.235 487.916C223.202 495.454 225.55 502.646 225.047 511.887C224.538 520.802 220.808 529.553 215.118 535.141C213.739 536.491 211.069 538.451 209.332 539.384C207.291 540.481 202.455 541.708 200.068 541.75C189.482 541.951 182.711 538.884 179.448 532.407C176.724 527.013 177.225 518.223 180.548 513.285C182.172 510.868 184.266 509.43 187.359 508.585C191.261 507.546 194.947 508.139 200.509 510.75L202.733 511.775L202.198 510.321C199.542 503.129 194.069 496.36 189.046 494.076C188.368 493.766 187.757 493.478 187.679 493.417C187.275 493.136 184.222 492.455 182.942 492.346C178.444 492.01 171.539 493.849 166.34 496.769C161.017 499.764 156.548 504.024 153.585 508.927C151.648 512.165 150.641 514.664 149.953 518.122C148.93 523.224 149.331 527.681 151.329 533.575C154.71 543.459 160.569 551.353 169.82 558.528C171.969 560.186 175.527 562.205 178.422 563.44L180.363 564.253L176.779 565.331C172.574 566.615 170.964 567.412 168.693 569.408C165.992 571.786 164.404 574.563 163.77 578.067C162.803 583.38 164.327 590.178 167.944 596.602C169.726 599.791 172.719 603.291 175.093 604.95C177.546 606.671 180.376 607.513 182.932 607.262C185.134 607.064 189.778 605.581 192.148 604.336C195.989 602.309 199.098 600.151 202.513 597.154C203.407 596.363 204.208 595.761 204.281 595.803C204.354 595.845 204.586 596.478 204.787 597.223C205.608 600.197 207.718 604.526 209.774 607.437C213.203 612.253 218.009 616.089 223.118 618.084C229.369 620.512 241.654 622.13 252.24 621.929C255.814 621.877 261.131 621.525 261.223 621.337C261.257 621.307 260.969 621.077 260.6 620.848C254.671 617.106 247.922 609.634 243.729 602.135C236.671 589.485 234.98 577.657 238.099 562.377C238.995 557.943 240.342 553.204 242.874 545.633C247.073 532.992 248.886 524.732 249.746 514.229C250.574 503.837 249.37 492.677 246.432 483.903C244.575 478.381 242.996 474.954 240.634 471.285C237.378 466.279 233.176 461.791 227.737 457.51C221.14 452.351 211.618 447.295 203.345 444.588L201.547 444.002L202.558 443.569C213.015 439.166 219.35 432.546 222.514 422.76C223.612 419.377 224.434 413.755 224.048 412.323C223.744 411.197 220.867 407.44 218.49 405.086C214.958 401.565 210.454 398.775 205.955 397.292C201.238 395.766 195.267 395.29 190.203 396.046C189.518 396.167 188.951 396.195 188.931 396.118C188.915 396.061 189.257 395.581 189.714 395.071C193.881 390.297 196.59 386.505 199.75 381.038C205.427 371.217 208.278 362.476 208.787 353.254C209.277 344.118 206.646 332.908 201.548 322.437C195.699 310.468 187.057 299.775 173.32 287.595C168.252 283.092 168.199 283.045 165.304 280.215C160.683 275.695 156.5 270.67 153.81 266.393C150.65 261.361 149.111 257.781 147.552 251.995C146.451 247.909 146.091 245.815 145.833 241.811C145.19 232.2 146.799 222.5 150.237 215.097C151.436 212.547 151.585 212.568 147.551 214.564C140.965 217.813 133.833 222.312 128.405 226.664C125.099 229.305 120.09 233.996 119.649 234.871C119.607 234.944 119.176 235.55 118.689 236.252C116.252 239.685 114.515 244.118 113.863 248.548C113.241 252.705 113.389 256.984 114.249 261.011C114.542 262.325 114.691 263.411 114.595 263.436C114.519 263.457 113.55 263.285 112.465 263.063C102.174 260.934 92.0944 262.023 87.9035 265.718C83.7547 269.341 81.9471 277.088 83.2253 285.711C83.8122 289.791 84.7628 292.71 86.5011 295.89C90.6323 303.384 98.0534 305.971 107.425 303.167C109.762 302.483 109.978 302.446 109.705 302.805C109.555 303.009 108.861 303.93 108.18 304.828C103.379 311.203 99.929 321.148 99.2746 330.511C98.8268 336.913 99.5986 343.277 101.467 348.612C103.815 355.272 107.63 359.842 113.926 363.506C116.674 365.107 118.862 365.998 121.99 366.802C126.613 367.985 130.005 368.247 134.88 367.849C137.585 367.62 144.137 365.915 145.984 364.932C152.79 361.358 156.218 354.755 156.374 344.911C156.407 342.978 156.043 338.737 155.749 337.648L155.58 337.018L154.061 339.142C150.479 344.108 147.803 346.274 143.805 347.339C140.63 348.185 137.881 347.873 135.086 346.326C133.233 345.305 132.306 344.529 130.565 342.557C126.535 338.024 124.561 332.676 125.137 327.816C125.61 323.863 127.618 320.36 131.302 317.066C137.941 311.122 145.729 308.679 153.175 310.215C157.317 311.056 162.456 313.391 165.56 315.858C165.98 316.197 166.389 316.497 166.481 316.534C167.023 316.799 170.294 319.959 171.741 321.6C177.136 327.775 180.286 335.204 180.618 342.524C180.944 349.211 179.363 356.734 176.122 364.105C175.073 366.452 171.709 372.301 170.292 374.193C167.26 378.234 164.132 381.155 160.636 383.171C160.266 383.393 158.907 383.98 157.628 384.484C154.441 385.743 152.837 386.559 150.401 388.17C143.725 392.609 139.348 398.81 135.916 408.668C134.54 412.616 132.797 415.352 130.073 417.797C126.555 420.944 122.502 422.945 117.857 423.814C115.496 424.259 114.57 424.322 112.265 424.138C109.855 423.941 108.265 423.443 106.037 422.175C103.076 420.467 100.892 418.143 99.024 414.711C97.7968 412.439 96.8412 408.969 96.8233 406.62C96.7339 397.844 103.51 391.188 112.948 390.761C115.967 390.632 119.701 391.172 122.138 392.078C122.758 392.322 123.356 392.49 123.433 392.47C123.605 392.424 122.876 390.326 122.11 388.627C118.79 381.325 111.705 375.497 104.06 373.83C101.73 373.325 98.9495 373.125 96.2807 373.263C94.0201 373.394 87.7229 374.826 85.404 375.731C83.8679 376.345 83.6943 376.309 84.0152 375.446C84.3766 374.429 85.2831 370.033 85.7523 366.981C86.7894 360.483 87.0796 354.942 86.6894 349.766C86.5302 347.577 86.3626 346.803 84.9168 341.438C83.2445 335.232 82.5924 333.421 79.8072 327.041C76.822 320.223 72.5615 311.944 68.9862 305.979C67.2037 303.016 66.7125 301.878 65.8701 298.828C63.9215 291.673 64.046 283.31 66.2645 273.285C68.6244 262.566 73.308 252.027 80.4869 241.314C81.9469 239.124 84.7967 235.398 87.1637 232.618C91.1532 227.871 93.4592 225.17 95.4687 222.813C99.4648 218.167 104.111 212.508 108.377 207.115C126.667 183.925 136.996 162.386 141.871 137.265C144.304 124.686 143.568 112.295 139.69 100.108C135.746 87.7541 129.352 77.5673 120.274 69.1392C114.832 64.0813 107.322 59.4923 100.66 57.1335C92.213 54.1653 83.0069 53.3232 73.8835 54.6898C68.7039 55.4763 60.6403 57.809 54.4628 60.294C38.3154 66.7861 26.2036 76.7667 18.7285 89.7278C17.0367 92.6548 14.8656 97.531 14.4967 99.2051L14.3414 99.9219L14.0391 99.4089C13.0633 97.7656 11.0955 90.6154 10.6644 87.1897C9.06633 74.6405 11.8569 61.9452 18.3677 52.0242C23.331 44.5008 31.0541 38.1659 39.3541 34.8084L41.1668 34.0799L40.8734 33.5236C39.6189 31.0745 34.8969 27.6256 30.9183 26.2503C27.3022 25.0034 22.2457 24.3451 18.6191 24.6565C16.1966 24.8721 11.7621 26.2174 9.64029 27.3967C5.10616 29.894 0.505494 34.0464 -2.52542 38.3944C-3.12071 39.2284 -3.64752 39.86 -3.70637 39.7938C-3.76521 39.7275 -3.95336 38.8772 -4.10985 37.9161C-4.50437 35.4631 -6.8567 27.4943 -7.95959 24.923C-8.98822 22.4752 -10.514 19.6277 -11.7583 17.749C-14.0483 14.3479 -20.5763 7.69642 -25.0584 4.2245C-27.1289 2.62724 -30.763 0.0959637 -30.9352 0.141828C-31.0308 0.167312 -31.3473 0.742785 -31.6814 1.40483ZM-62.2501 123.194C-53.162 122 -45.3837 122.793 -38.179 125.642C-33.7222 127.422 -25.8757 132.576 -23.4289 135.342C-22.7817 136.07 -21.758 137.434 -21.1461 138.336C-20.1335 139.887 -18.4783 142.987 -18.293 143.674C-18.2467 143.846 -19.0654 143.471 -20.2113 142.794C-26.5325 139.116 -32.8981 137.251 -39.1435 137.278C-40.8825 137.291 -41.7881 137.43 -44.5056 138.072C-47.496 138.766 -47.9831 138.937 -50.1166 139.997C-61.5743 145.71 -66.6398 156.658 -64.0738 170.136C-63.4426 173.468 -62.5405 175.826 -60.9939 178.218C-56.6309 184.976 -47.1011 189.149 -37.3533 188.578C-30.4951 188.163 -25.7521 186.06 -19.8359 180.78C-16.9223 178.202 -12.5929 173.12 -10.1654 169.423C-9.58036 168.551 -9.05498 167.838 -9.00129 167.885C-8.93362 167.908 -8.8382 168.947 -8.79726 170.164C-8.29228 182.841 -4.06067 195.425 2.56327 203.954C4.60408 206.583 8.86609 210.912 13.6754 215.217C16.493 217.761 21.3672 221.395 24.4756 223.268C26.9528 224.777 29.6478 226.106 30.0113 226.009C30.3938 225.907 33.3469 220.966 34.6539 218.285C37.3415 212.739 39.6225 206.216 41.4918 198.699C43.0474 192.452 43.3472 187.174 42.5166 180.211C42.1796 177.211 39.8547 168.355 38.6437 165.383C37.5739 162.782 36.0894 159.555 35.1504 157.82C34.7136 157.036 34.3842 156.346 34.4313 156.293C34.4592 156.244 35.297 156.615 36.3098 157.102C39.0726 158.453 43.7897 160.287 46.7938 161.165C52.8019 162.92 57.8452 163.377 62.5541 162.594C64.0298 162.364 67.3903 161.141 69.4716 160.116C75.4528 157.131 80.9446 151.493 83.1909 145.982C84.0196 143.961 84.7486 140.124 84.7005 137.967C84.622 133.567 82.451 127.413 79.4226 123.021C76.7987 119.218 72.8396 115.709 69.3811 114.134C63.2495 111.388 57.336 110.897 50.8085 112.615C43.3872 114.593 36.9531 119.929 32.0934 128.141C31.2214 129.622 30.4495 130.79 30.3715 130.729C30.1222 130.488 30.0001 126.612 30.1536 124.442C30.3727 121.376 30.9065 119.248 32.2636 116.144C35.4908 108.797 38.6475 104.231 43.5005 99.9501C49.5212 94.6008 58.2553 90.2681 66.8455 88.3682C70.2531 87.624 71.6765 87.429 74.9376 87.3583C84.7971 87.1258 93.6002 90.9608 100.141 98.3457C109.531 108.921 113.698 127.581 110.089 142.868C107.601 153.416 102.545 163.563 93.6879 175.808C92.5863 177.349 91.2354 179.183 90.6857 179.882C90.1412 180.6 89.2634 181.755 88.7137 182.454C85.234 186.962 80.7788 192.263 72.2568 202.024C65.7127 209.539 65.0917 210.277 62.1366 214.298C57.3803 220.764 52.9069 228.279 49.7438 235.18C49.3272 236.068 48.8319 237.121 48.6325 237.522C47.8031 239.237 45.5171 245.208 44.3445 248.693C42.8348 253.209 41.7313 257.33 40.9441 261.407C40.6274 263.047 40.3292 264.375 40.2718 264.39C40.2144 264.406 39.5084 263.611 38.6744 262.647C33.0844 256.052 24.5233 248.551 15.9303 242.756C11.8261 240.002 6.31994 236.762 2.1266 234.667C-5.16923 231.023 -7.44358 230.115 -21.7327 225.245C-28.1961 223.017 -31.1891 221.952 -37.2737 219.685C-40.9883 218.301 -48.321 215.281 -50.2982 214.334C-50.6277 214.177 -51.8921 213.593 -53.1079 213.037C-65.5233 207.36 -75.4777 200.394 -82.1482 192.757C-87.3669 186.78 -90.4318 181.416 -93.0505 173.6C-98.4084 157.673 -95.7284 142.817 -85.8214 133.403C-82.623 130.362 -77.7173 127.417 -72.9634 125.659C-71.2448 125.038 -64.5511 123.479 -62.2501 123.194ZM141.119 633.915C153.195 647.766 171.216 660.094 189.199 666.804C190.703 667.365 194.938 668.856 198.598 670.112C204.698 672.211 212.782 675.051 215.022 675.907C216.464 676.465 226.219 680.333 226.732 680.564C226.989 680.68 228.456 681.333 229.996 682.028C236.825 685.079 245.127 689.641 249.657 692.834C258.275 698.949 264.177 705.256 268.476 712.992C273.559 722.117 276.178 733.739 275.183 742.599C274.201 751.354 270.692 758.265 264.515 763.717C258.536 768.994 250.459 772.19 240.303 773.3C227.317 774.713 217.74 772.189 207.347 764.582C204.183 762.274 202.701 760.806 201.088 758.473C200.111 757.055 197.781 752.744 197.893 752.55C197.926 752.521 199.065 753.098 200.414 753.843C209.533 758.925 218.301 760.272 226.078 757.791C235.48 754.795 242.325 747.179 243.914 737.935C244.723 733.176 244.523 729.239 243.174 724.236C242.367 721.238 242.184 720.714 241.307 719.208C236.831 711.498 227.491 707.192 216.532 707.758C213.523 707.926 208.774 709.171 206.581 710.389C200.748 713.622 194.959 719.298 189.814 726.829C189.168 727.779 188.628 728.516 188.585 728.507C188.555 728.474 188.505 727.526 188.441 726.376C188.221 720.766 187.25 715.11 185.574 709.499C182.199 698.344 177.496 691.39 166.809 681.856C161.39 677.038 154.846 672.457 150.701 670.615L149.606 670.129L148.819 671.239C147.396 673.337 145.084 677.617 143.865 680.397C140.561 687.99 137.569 698.263 136.905 704.395C135.745 714.773 138.77 728.129 144.653 738.78C144.986 739.407 145.26 739.969 145.213 740.022C145.185 740.07 144.493 739.784 143.645 739.376C136.535 735.888 129.836 733.927 122.969 733.322C122.675 733.298 121.628 733.29 120.61 733.316C119.058 733.34 118.259 733.492 115.524 734.221C112.654 734.985 112.025 735.235 110.14 736.228C104.833 739.054 100.923 742.572 98.2287 746.953C94.7312 752.613 93.9943 758.703 96.0771 764.759C100.366 777.328 109.352 784.429 121.224 784.664C128.226 784.783 133.982 782.636 139.575 777.83C142.816 775.022 145.304 772.006 147.789 767.762C148.577 766.427 149.251 765.429 149.292 765.581C149.467 766.23 149.608 770.102 149.518 771.743C149.325 775.212 148.639 777.461 146.049 783.063C145.263 784.787 142.885 788.818 141.918 790.099C135.993 797.858 128.854 802.707 117.68 806.585C110.318 809.16 102.519 809.662 95.9269 808.022C89.2912 806.372 84.2102 803.264 79.5085 797.988C75.3069 793.275 72.2855 787.388 70.2736 779.922C65.9566 763.902 68.3798 749.463 78.2266 732.37C82.5838 724.803 85.8972 720.134 95.0992 708.637C96.537 706.821 100.523 702.137 104.676 697.388C112.533 688.356 114.708 685.853 114.819 685.578C114.86 685.506 115.461 684.691 116.18 683.783C120.064 678.798 124.117 672.459 127.21 666.518C132.669 656.039 136.567 645.402 138.512 635.654C138.919 633.662 139.273 632.012 139.331 631.997C139.383 631.963 140.191 632.832 141.119 633.915Z" fill="url(#paint0_linear_445_137)" fill-opacity="0.7"/>
<defs>
<linearGradient id="paint0_linear_445_137" x1="210.64" y1="896.239" x2="-28.3005" y2="-0.560139" gradientUnits="userSpaceOnUse">
<stop stop-color="#52BBD7"/>
<stop offset="1" stop-color="#52BBD7" stop-opacity="0"/>
</linearGradient>
</defs>
</svg>
