<svg width="1296" height="418" viewBox="0 0 1296 418" fill="none" xmlns="http://www.w3.org/2000/svg">
<path d="M1.52026 210.692C8.82886 216.842 17.453 222.554 25.434 226.518C34.8767 231.211 42.5946 232.843 55.6915 232.872C59.6967 232.901 63.965 232.814 65.1636 232.668C67.6193 232.405 67.6484 232.172 65.1051 235.262C59.8721 241.644 55.8669 249.659 54.2299 256.975C53.5867 259.918 53.3236 266.593 53.7621 269.42C55.1069 277.842 59.5212 286.615 65.1927 292.153C67.9993 294.892 72.7061 297.865 75.1617 298.477C75.9218 298.652 75.951 298.652 76.1265 296.67C77.2958 285.187 83.0258 271.489 90.5682 262.046C99.6602 250.709 113.839 241.499 128.631 237.302C137.285 234.854 146.903 233.804 154.299 234.446C160.205 234.999 160.088 234.883 157.223 236.777C152.311 240.041 145.967 245.754 142.138 250.388C141.056 251.67 140.12 252.778 140.033 252.865C139.565 253.302 137.197 256.596 135.443 259.277C131.146 265.747 127.696 272.596 125.006 279.97C124.568 281.165 124.012 282.622 123.808 283.176C123.194 284.808 121.323 291.511 120.709 294.222C117.902 306.667 116.675 321.997 117.522 333.743C119.481 360.002 132.081 381.482 154.358 396.463C166.841 404.885 181.546 410.277 198.385 412.638C204.729 413.512 219.813 413.6 226.128 412.784C239.927 410.977 250.86 407.625 263.548 401.301C281.293 392.411 296.291 382.356 311.171 369.299C317.456 363.82 328.361 352.774 333.623 346.566C334.032 346.071 335.202 344.701 336.225 343.506C342.744 335.87 352.041 323.688 359.583 312.904C360.957 310.951 362.974 308.066 364.115 306.492C365.225 304.889 367.593 301.508 369.377 298.914C382.006 280.553 386.187 275.249 395.395 266.126C407.206 254.381 419.689 245.754 434.423 239.109C447.754 233.076 462.751 230.715 471.902 233.192C498.125 240.304 518.501 243.568 534.054 243.16C540.632 242.985 544.111 242.548 549.373 241.207C557.676 239.109 564.253 236.573 574.105 231.677C577.847 229.812 580.946 228.354 581.005 228.413C581.063 228.471 581.005 229.258 580.858 230.132C580.186 234.795 580.742 244.85 581.911 249.222C583.314 254.468 585.653 259.423 588.372 262.979C593.663 269.857 602.112 275.307 610.707 277.347C613.367 277.959 618.892 278.455 618.892 278.076C618.892 277.93 618.337 276.91 617.635 275.773C615.823 272.742 615.53 272.188 614.536 269.682C610.765 260.239 611.292 251.466 616.057 244.209C621.436 235.99 631.639 232.493 642.397 235.203C649.998 237.127 656.166 241.79 659.09 247.765C662.715 255.109 662.978 265.019 659.762 273.675C657.219 280.582 653.389 285.478 647.308 289.588C634.416 298.302 626.99 307.221 623.278 318.412C621.933 322.434 621.377 325.057 620.793 329.954C620.325 333.976 619.857 336.045 618.776 338.785C614.39 349.86 603.164 362.013 589.19 370.698C582.817 374.662 574.222 377.955 567.031 379.209C563.23 379.85 556.097 379.792 551.858 379.063C534.844 376.119 519.846 365.715 512.947 352.046C509.819 345.809 508.737 337.794 510.14 331.003C513.064 316.664 519.759 307.716 529.874 304.568C532.563 303.752 539.813 303.811 543.146 304.685C553.524 307.395 560.774 313.516 562.178 320.715C562.645 322.959 562.412 327.855 561.768 330.216C560.687 334.151 557.412 339.426 553.378 343.71C552.764 344.38 552.238 345.022 552.238 345.138C552.238 345.779 561.973 343.972 566.446 342.486C579.865 337.998 587.261 330.041 588.781 318.412C589.453 313.137 588.839 304.743 587.378 299.206C584.864 289.792 580.449 282.069 573.901 275.598C567.732 269.507 561.213 265.98 552.94 264.319C549.373 263.62 539.755 263.62 534.99 264.348C527.301 265.514 519.992 267.787 512.918 271.256C510.667 272.334 508.62 273.383 508.386 273.529C508.152 273.704 506.691 274.607 505.141 275.54C501.692 277.668 496.283 281.66 493.798 283.905C491.927 285.624 487.747 290.404 486.636 292.124C486.285 292.648 485.876 293.114 485.73 293.173C485.554 293.26 485.437 291.511 485.437 288.306C485.408 281.952 484.736 278.746 482.485 274.345C478.158 265.864 469.622 261.609 457.051 261.609C442.55 261.638 428.781 267.875 424.601 276.356C420.859 283.846 423.197 298.477 430.389 312.729C431.032 313.982 431.5 315.061 431.441 315.09C431.383 315.148 429.629 315.352 427.582 315.527C411.357 316.926 398.874 323.775 391.098 335.491C387.21 341.349 381.451 354.552 378.176 365.103C375.604 373.438 372.739 386.349 373.47 386.349C373.586 386.349 374.259 385.854 374.902 385.242C384.082 377.023 399.05 370.203 413.667 367.58C426.969 365.19 440.095 366.123 452.256 370.29C463.453 374.108 473.1 379.18 487.776 388.972C512.976 405.731 533.879 414.358 556.915 417.447C561.944 418.117 578.286 418.205 582.496 417.564C594.043 415.844 603.486 412.405 613.192 406.314C625.616 398.532 637.866 386.553 646.665 373.584C648.01 371.631 649.179 370.028 649.296 370.028C649.384 370.028 649.647 371.252 649.852 372.709C650.612 378.538 652.863 385.65 655.494 390.43C661.078 400.63 671.777 409.345 683.267 413.046L685.781 413.862L688.09 413.192C694.873 411.239 702.795 406.459 708.32 400.98C711.507 397.803 712.413 396.754 714.43 393.635C718.494 387.428 720.921 380.462 722.295 371.223L722.528 369.649L723.961 371.806C731.357 382.91 742.291 394.568 752.143 401.884C761.907 409.082 772.344 414.066 782.605 416.369C788.686 417.709 791.639 417.972 801.9 417.942C812.249 417.942 814.558 417.738 823.416 416.077C828.766 415.057 839.992 411.88 843.705 410.306C844.114 410.132 846.015 409.374 847.944 408.645C856.305 405.41 870.484 397.832 880.54 391.275C894.719 382.007 898.636 379.646 905.974 376.003C918.691 369.649 929.45 366.735 941.494 366.327C955.38 365.86 970.582 369.445 983.445 376.178C987.684 378.393 993.444 382.211 996.396 384.717C997.624 385.795 998.647 386.466 998.647 386.262C998.647 384.251 995.899 372.418 993.853 365.656C990.14 353.27 983.767 339.309 979.002 332.985C975.581 328.467 969.53 323.454 964.238 320.802C958.245 317.8 949.709 315.673 943.102 315.498C941.728 315.469 940.529 315.381 940.412 315.323C940.296 315.265 940.705 314.215 941.319 312.962C944.359 306.9 946.581 300.838 947.955 294.892C948.978 290.491 949.27 283.351 948.54 279.999C947.692 276.036 945.616 272.888 941.903 269.944C932.11 262.221 914.248 259.365 901.882 263.561C895.07 265.864 890.012 271.168 887.761 278.367C886.621 281.923 886.329 284.371 886.446 289.092C886.475 291.453 886.446 293.348 886.329 293.318C886.212 293.26 885.247 292.124 884.195 290.754C881.417 287.198 877.032 282.855 873.816 280.407C858.351 268.808 841.6 263.066 825.141 263.765C817.16 264.086 810.933 266.01 804.677 270.061C796.228 275.569 789.592 284.313 785.879 294.834C783.57 301.479 782.751 306.987 782.985 314.74C783.102 319.374 783.219 320.365 783.891 322.667C787.02 333.131 795.644 340.213 809.501 343.652C812.483 344.41 818.563 345.371 819.294 345.197C819.616 345.138 819.294 344.584 818.154 343.302C814.266 338.872 811.664 334.85 810.553 331.557C806.548 319.607 812.22 310.164 826.194 305.53C830.374 304.131 833.064 303.752 837.215 303.956C840.928 304.16 843.033 304.685 846.102 306.23C849.435 307.92 852.972 311.097 855.282 314.507C857.708 318.092 860.603 325.378 861.743 330.682C862.444 334.034 862.474 341.029 861.743 344.002C857.738 360.673 841.717 374.604 821.633 378.83C818.856 379.413 817.599 379.5 812.132 379.5C806.607 379.5 805.466 379.413 802.777 378.83C790.323 376.061 778.074 369.154 767.725 359.099C757.668 349.335 751.967 339.601 751.178 330.828C750.36 321.822 747.787 314.303 743.197 307.366C738.929 300.954 733.491 295.708 725.159 290.025C721.301 287.402 719.517 285.857 717.617 283.526C709.841 273.995 707.619 259.044 712.413 248.377C713.933 245.025 715.629 242.869 718.436 240.624C725.159 235.32 734.865 233.018 742.466 234.97C746.881 236.078 750.126 237.914 753.078 240.916C756.148 244.005 757.844 247.036 759.13 251.729C759.948 254.643 759.861 261.55 758.954 264.815C757.844 268.982 755.768 273.558 753.312 277.318L752.669 278.309L755.739 278.134C763.047 277.697 770.414 274.724 776.846 269.624C784.184 263.824 788.54 256.479 790.528 246.599C791.054 244.005 791.171 242.344 791.2 237.856C791.229 234.795 791.142 231.356 790.995 230.161L790.791 228.034L792.165 228.85C795.907 231.036 805.817 235.67 810.962 237.622C816.488 239.721 823.65 241.674 828.942 242.577C833.327 243.306 846.775 243.306 853.206 242.548C865.514 241.149 879.166 238.613 891.182 235.524C903.08 232.464 903.109 232.464 906.676 232.26C920.358 231.589 938.22 237.681 955.088 248.756C967.074 256.625 976.078 264.756 987.363 277.93C988.708 279.475 994.876 287.839 996.952 290.899C998.15 292.648 999.904 295.213 1000.87 296.583C1002.59 299.002 1004 301.042 1007.97 306.783C1028.47 336.482 1045.48 356.417 1063.26 371.485C1077.96 383.959 1091.32 392.79 1108.42 401.301C1121.23 407.683 1131.78 410.918 1145.84 412.784C1150.64 413.425 1166.39 413.512 1171.13 412.929C1185.28 411.181 1197.12 407.654 1208.46 401.796C1217.23 397.249 1223.49 392.761 1230.45 385.97C1243.25 373.409 1250.85 358.457 1253.75 340.009C1254.48 335.287 1254.65 319.257 1254.04 312.612C1252.52 296.612 1249.07 283.467 1243.16 271.256C1239.71 264.144 1236.38 258.694 1232.14 253.302C1226.94 246.687 1220.71 240.799 1214.78 236.836C1211.91 234.941 1211.88 234.97 1217.23 234.475C1229.86 233.338 1245.53 236.661 1257.87 243.131C1265.44 247.095 1270.73 250.971 1276.52 256.771C1281.96 262.192 1285.7 267.496 1289.09 274.52C1292.72 282.01 1295.03 289.734 1295.79 296.991C1295.87 297.778 1296.02 298.477 1296.11 298.565C1296.4 298.856 1300.26 296.991 1302.71 295.388C1309.67 290.725 1315.4 281.631 1317.77 271.372C1318.53 268.166 1318.53 261.026 1317.77 257.528C1316.19 250.009 1311.92 241.44 1306.6 235.029C1305.58 233.775 1304.73 232.726 1304.73 232.639C1304.73 232.551 1305.55 232.58 1306.54 232.697C1309.67 233.047 1323.38 232.901 1326.22 232.522C1333.29 231.531 1338.97 230.016 1343.76 227.859C1352.3 224.012 1364.17 216.259 1370.74 210.255L1372 209.119L1370.6 207.836C1364.43 202.328 1354.34 195.566 1346.1 191.428C1337.65 187.202 1327.74 185.22 1315.2 185.278C1312.1 185.278 1308.5 185.395 1307.22 185.511C1305.93 185.628 1304.85 185.715 1304.79 185.657C1304.73 185.628 1305.52 184.579 1306.54 183.296C1311.19 177.555 1314.38 171.813 1316.43 165.576C1319.17 157.095 1319.09 149.43 1316.07 141.24C1315.11 138.559 1313.03 134.303 1311.81 132.38C1309.32 128.562 1305.46 124.598 1302.1 122.412C1300.11 121.13 1296.37 119.44 1296.11 119.731C1296.02 119.818 1295.82 120.984 1295.64 122.325C1294.24 133.546 1289.3 145.699 1282.4 154.792C1279.85 158.144 1279.27 158.814 1275.53 162.487C1270.76 167.15 1266.52 170.239 1259.8 174.057C1247.26 181.139 1231.21 184.87 1217.96 183.792C1211.71 183.267 1211.82 183.384 1214.89 181.314C1221.71 176.68 1227.61 170.91 1233.37 163.244C1244.48 148.468 1251.09 130.835 1253.75 108.743C1254.45 103.118 1254.54 83.5038 1253.89 79.3069C1250.76 58.41 1242.11 42.4094 1226.53 28.5947C1225.07 27.3123 1223.43 25.9425 1222.88 25.5344C1222.32 25.1555 1221.79 24.7475 1221.71 24.6601C1221.5 24.4561 1220.27 23.6109 1217.15 21.5124C1204.84 13.2935 1190.16 7.96002 1173.18 5.51184C1167.89 4.7832 1150.4 4.7832 1145.11 5.51184C1127.92 7.96002 1115.56 12.4483 1097.26 22.8531C1090.24 26.8168 1080.42 33.1996 1075.77 36.7261C1074.72 37.5422 1073.46 38.4748 1073.02 38.7954C1066.15 43.7792 1053.05 55.5829 1046.01 63.1606C1040.54 69.0479 1040.34 69.2519 1037.21 72.895C1030.28 80.9973 1020.49 93.6754 1013.35 103.789C1012.24 105.392 1010.81 107.432 1010.19 108.306C1009.55 109.181 1007.56 112.066 1005.72 114.718C1003.91 117.37 1002.04 120.022 1001.63 120.634C999.027 124.336 996.075 128.562 994.788 130.456C986.486 142.581 974.5 155.142 962.689 164.148C946.522 176.476 928.514 184.316 912.844 185.832C906.939 186.415 903.665 186.036 894.719 183.646C880.336 179.857 867.765 177.409 853.937 175.777C848.558 175.136 835.958 174.873 832.011 175.31C824.176 176.214 815.465 178.662 806.285 182.538C803.128 183.879 794.913 187.843 792.486 189.242C791.697 189.65 791.025 189.941 790.937 189.854C790.849 189.766 790.908 188.601 791.083 187.26C792.194 178.283 790.586 168.17 786.786 160.621C784.944 156.92 783.248 154.647 779.945 151.382C774.186 145.699 766.702 141.765 759.276 140.54C755.826 139.958 752.786 139.695 752.786 139.958C752.786 140.074 753.283 140.949 753.926 141.939C757.639 147.827 759.481 153.335 759.715 159.31C760.007 166.305 757.961 172.134 753.546 177.001C749.161 181.839 741.121 184.637 733.901 183.821C726.095 182.946 719.166 179.42 715.015 174.174C707.999 165.401 708.233 148.934 715.541 137.568C717.734 134.099 720.745 131.185 725.159 128.212C732.877 122.995 738.987 117.195 742.963 111.221C747.67 104.226 750.038 97.4059 751.149 87.7298C751.704 83.0958 752.786 79.5692 755.008 75.4015C761.878 62.4611 776.378 49.5499 791.229 43.1963C804.268 37.6005 815.435 37.0175 828.445 41.2727C840.986 45.4113 852.066 54.0674 857.884 64.2972C859.287 66.7746 861.07 71.3212 861.743 74.1483C862.532 77.4708 862.444 84.8153 861.596 88.2253C857.854 103.352 850.897 111.804 840.402 113.96C831.66 115.767 819.294 111.687 813.506 105.071C810.67 101.836 809.413 98.3094 809.384 93.588C809.384 87.6424 811.635 82.6295 817.482 75.7221L819.791 72.9533L817.511 73.1573C806.227 74.1774 794.474 79.3652 789.3 85.6314C788.598 86.4766 787.955 87.2343 787.838 87.3218C787.283 87.7881 785.148 91.8684 784.505 93.6462C782.313 99.9124 782.313 110.434 784.505 118.944C786.756 127.658 791.142 135.644 797.018 141.735C800.906 145.728 804.092 148.118 808.77 150.421C815.669 153.831 822.188 154.967 831.368 154.384C846.775 153.364 860.281 148.06 874.05 137.655C877.237 135.236 881.476 130.952 884.341 127.309L886.241 124.861L886.417 130.369C886.65 136.839 887.177 139.433 889.165 143.426C891.533 148.176 894.894 151.499 899.66 153.743C906.881 157.153 917.171 157.59 927.725 154.909C932.958 153.597 939.097 150.683 942.371 147.943C945.762 145.116 948.043 141.415 948.657 137.684C949.212 134.478 948.861 127.309 947.984 123.462C946.552 117.225 944.651 111.978 941.67 105.975C940.88 104.401 940.325 103.031 940.412 102.943C940.5 102.856 941.494 102.769 942.634 102.769C947.195 102.739 954.182 101.399 959.122 99.5918C967.308 96.5607 974.617 91.1981 979.411 84.6987C985.258 76.7422 992.245 59.8964 995.987 44.7701C997.273 39.6697 998.794 31.9755 998.56 31.7715C998.53 31.7132 998.092 32.0338 997.624 32.4709C990.023 39.4657 976.78 46.1982 964.472 49.2876C943.716 54.4754 926.175 52.3478 905.536 42.0596C899.543 39.0869 893.287 35.3563 883.435 28.857C866.976 18.0442 855.867 12.3026 841.191 7.05652C826.661 1.89786 810.261 -0.666901 796.608 0.14917C788.013 0.673767 782.517 1.60641 776.378 3.55911C767.988 6.26959 759.978 10.5248 751.792 16.6161C741.911 24.0189 731.065 35.6186 724.049 46.3439L722.528 48.6755L722.295 47.0726C719.985 30.5182 712.94 18.9768 700.164 10.7288C695.75 7.87259 688.032 4.55005 685.839 4.55005C684.114 4.55005 677.654 7.20224 673.385 9.67957C667.012 13.3518 661.312 18.6854 657.482 24.5143C653.506 30.6348 650.553 38.9411 649.706 46.4314C649.618 47.4514 649.442 48.2675 649.325 48.2675C649.238 48.2675 648.682 47.5972 648.127 46.752C642.894 38.9994 638.509 33.695 631.902 27.1083C620.033 15.2754 608.631 7.87259 595.651 3.6174C582.788 -0.579468 565.773 -1.13321 548.876 2.10187C529.552 5.83243 510.988 14.0222 488.361 28.8861C480 34.3654 479.912 34.4236 474.767 37.4547C466.552 42.2928 457.782 46.3148 450.648 48.5007C442.258 51.0654 436.557 51.8815 427.699 51.8815C421.443 51.8815 418.315 51.59 412.497 50.4243C398.523 47.6555 385.28 41.6516 376.013 33.9282C372.826 31.2469 372.914 31.0428 374.23 37.5422C376.364 48.1509 380.077 60.0129 384.228 69.3976C386.742 75.11 391.536 84.0284 392.618 84.9902C392.706 85.0776 393.407 85.9228 394.226 86.8846C398.202 91.6644 403.873 95.8321 409.954 98.4552C415.655 100.932 421.823 102.361 427.904 102.681C429.892 102.769 431.5 102.973 431.5 103.118C431.5 103.235 430.886 104.546 430.155 106.004C423.197 119.818 420.917 134.566 424.601 141.939C428.196 149.226 438.575 154.763 451.379 156.25C457.431 156.978 461.962 156.745 467.166 155.492C479.444 152.49 485.964 142.93 485.525 128.533C485.437 124.948 485.467 124.627 485.876 125.152C486.11 125.443 487.162 126.784 488.185 128.096C495.465 137.364 508.357 146.078 521.483 150.596C530.458 153.685 539.843 155.026 548.174 154.414C558.582 153.627 566.563 149.954 574.193 142.406C577.526 139.112 579.631 136.344 581.969 132.205C585.419 126.085 587.085 121.363 588.372 114.281C589.073 110.346 589.132 100.379 588.43 97.3768C585.916 86.3308 577.789 78.928 563.786 74.9352C561.038 74.1483 554.84 73.0407 553.173 73.0407L552.209 73.0407L554.664 76.0135C560.394 83.0083 562.47 87.6424 562.47 93.7337C562.47 98.5717 560.979 102.361 557.705 105.741C555.541 107.986 554.08 109.006 550.601 110.725C542.591 114.718 534.2 115.476 527.476 112.794C522.01 110.609 517.771 106.412 514.467 99.9124C508.503 88.1961 507.977 76.1884 513.005 66.1917C515.783 60.625 521.074 54.2131 525.781 50.7448C526.424 50.2785 527.009 49.8122 527.096 49.6956C527.681 49.0253 533.44 45.5862 536.334 44.1581C547.21 38.8537 559.02 37.2216 569.603 39.5532C579.28 41.6516 589.424 46.7811 598.721 54.2131C601.673 56.603 608.748 63.6269 610.911 66.3665C615.53 72.2247 618.512 77.7914 620.062 83.5329C620.237 84.145 620.559 86.3017 620.793 88.3127C621.377 93.3257 621.933 95.9196 623.307 99.9998C627.107 111.192 634.299 119.789 647.074 128.445C652.19 131.914 655.435 135.44 657.891 140.249C661.048 146.457 662.364 152.985 661.838 159.922C661.575 163.448 661.312 164.789 660.171 167.995C658.973 171.347 657.657 173.416 654.997 176.097C651.43 179.653 647.279 181.868 641.666 183.209C637.953 184.083 632.633 184.112 629.271 183.238C616.7 180.003 609.771 167.82 612.753 154.239C613.718 149.896 615.911 144.796 618.132 141.677C618.717 140.89 619.185 140.103 619.185 139.987C619.185 139.724 615.911 139.958 613.192 140.395C601.498 142.318 590.477 150.158 585.185 160.388C583.577 163.507 582.232 167.383 581.414 171.23C580.742 174.494 580.391 183.996 580.8 187.639C581.092 190.058 580.975 190.291 579.865 189.504C578.549 188.601 572.614 185.628 568.434 183.792C559.547 179.828 551.741 177.292 544.199 175.864C541.012 175.252 539.843 175.194 531.628 175.194C522.127 175.194 519.291 175.427 509.117 176.943C498.242 178.575 484.794 181.46 474.913 184.258C470.002 185.657 468.189 185.919 463.512 185.948C452.549 185.978 440.65 182.597 427.173 175.602C412.761 168.141 399.488 157.445 386.917 143.134C384.345 140.22 380.106 134.741 377.036 130.311C371.774 122.82 368.792 118.507 366.19 114.747C361.074 107.286 354.76 98.5135 348.679 90.382C322.514 55.4955 295.677 32.5584 261.648 16.004C244.604 7.72684 226.625 4.02545 207.74 4.87064C188.591 5.745 171.606 10.9328 156.112 20.6089C146.815 26.4088 137.402 35.3271 131.496 43.8958C124.042 54.7668 119.335 67.5323 117.815 81.0265C116.967 88.6916 117.23 101.049 118.429 110.783C121.557 136.227 131.204 157.27 146.874 172.862C150.411 176.389 156.55 181.343 158.801 182.509L159.766 183.005L158.918 183.238C156.199 183.996 145.237 184.054 140.179 183.354C121.644 180.819 104.572 171.988 92.8777 158.931C84.0197 148.993 77.9097 135.586 76.2726 122.5L75.9218 119.644L75.0155 119.848C71.0397 120.693 64.3157 126.085 60.8368 131.214C57.6796 135.877 54.8146 142.814 53.879 148.089C53.2651 151.616 53.499 158.436 54.376 161.904C56.2178 169.307 60.3983 177.438 65.4558 183.413C66.4207 184.579 67.1222 185.57 67.0052 185.628C66.8883 185.686 65.6021 185.628 64.1696 185.482C60.5153 185.103 48.2368 185.395 44.1439 185.978C40.2559 186.502 35.6075 187.581 32.4502 188.63C26.7202 190.582 14.7341 197.315 8.06873 202.357C4.99915 204.689 0 208.885 0 209.148C0 209.294 0.70166 209.964 1.52026 210.692ZM163.859 300.809C165.613 287.431 169.706 276.677 176.517 267.525C180.756 261.871 191.105 252.69 195.988 250.271C197.274 249.63 199.613 248.698 201.133 248.173C203.735 247.328 208.792 246.162 209.845 246.162C210.108 246.162 209.26 247.182 207.857 248.552C200.197 256.129 195.11 264.465 192.772 273.354C192.129 275.831 191.982 277.172 191.865 281.282C191.719 285.799 191.778 286.557 192.479 289.996C196.28 308.474 209.991 319.87 230.221 321.385C235.22 321.764 238.933 321.385 242.938 320.103C254.252 316.489 263.841 304.539 266.735 290.462C268.752 280.553 267.553 273.004 262.262 262.571C259.689 257.441 254.076 249.339 249.72 244.471C248.697 243.306 247.879 242.286 247.966 242.227C248.025 242.14 249.545 242.402 251.299 242.81C269.6 246.949 289.187 245.754 303.892 239.604C308.423 237.71 316.229 233.309 324.21 228.121C328.916 225.09 335.962 219.553 339.821 215.851C342.92 212.907 345.843 209.585 345.843 209.031C345.843 208.448 339.908 202.357 336.576 199.472C329.676 193.526 321.228 187.785 311.2 182.247C302.869 177.642 295.443 175.194 285.182 173.707C280.767 173.037 267.232 172.95 262.525 173.533C258.403 174.057 253.229 174.932 250.393 175.602C249.106 175.923 247.995 176.127 247.937 176.039C247.879 175.981 248.726 174.932 249.808 173.678C252.79 170.268 257.204 164.265 259.602 160.33C264.396 152.461 266.969 145.466 267.641 138.471C267.875 136.285 267.407 131.039 266.735 127.688C264.747 118.041 258.783 108.073 251.767 102.769C249.194 100.816 243.99 98.3094 240.892 97.5517C234.577 95.9778 224.959 96.7065 217.533 99.3295C211.102 101.603 204.582 105.887 201.016 110.201C194.76 117.866 191.807 126.085 191.778 136.023C191.778 147.331 196.952 158.523 206.833 168.578C208.617 170.385 209.991 171.93 209.874 172.017C209.435 172.279 203.852 170.968 200.811 169.919C196.514 168.432 193.678 166.858 189.761 163.74C180.493 156.337 175.173 150.1 170.904 141.561C165.554 130.952 162.689 116.875 163.245 103.934C163.479 98.8049 163.742 96.7065 164.882 92.0433C168.302 77.9371 177.131 66.8911 190.17 60.421C208.851 51.1237 237.091 52.3478 257.555 63.3355C271.675 70.9131 284.246 81.9883 298.366 99.2712C300.15 101.428 302.255 104.051 303.044 105.1C303.862 106.149 305.178 107.84 305.967 108.889C311.083 115.563 316.959 123.928 327.659 139.783C335.903 151.965 336.722 153.131 341.341 158.873C348.766 168.112 357.8 177.351 366.453 184.491C367.564 185.424 368.88 186.531 369.377 186.968C371.511 188.805 379.17 194.342 383.702 197.344C389.578 201.22 395.045 204.368 400.57 207.049C402.792 208.128 404.575 209.06 404.575 209.148C404.575 209.235 403.172 209.935 401.476 210.751C389.929 216.172 375.955 225.469 364.407 235.466C358.911 240.245 352.187 246.832 347.597 251.991C339.616 260.968 337.453 263.853 325.057 282.302C319.415 290.637 316.755 294.484 311.2 302.266C307.809 307.017 300.705 316.285 298.6 318.733C298.249 319.141 296.934 320.715 295.677 322.23C282.843 337.706 269.103 349.189 255.655 355.747C245.13 360.877 236.302 363.179 224.14 363.908C199.349 365.423 179.148 355.922 169.472 338.231C166.344 332.518 164.005 324.416 163.303 316.984C163.07 314.303 163.391 304.19 163.859 300.809ZM970.816 207.341C995.198 195.479 1019.67 174.582 1036.1 151.586C1037.47 149.663 1041.21 144.213 1044.4 139.491C1049.72 131.622 1056.85 121.217 1058.93 118.361C1060.27 116.525 1069.51 104.138 1070.04 103.497C1070.3 103.177 1071.79 101.341 1073.37 99.417C1080.33 90.8775 1090 80.8224 1096.29 75.6055C1108.31 65.6962 1119.56 59.7215 1132.25 56.5738C1147.22 52.8433 1164.82 53.5719 1177.09 58.3808C1189.23 63.1314 1197.76 70.7674 1203.2 81.6385C1208.46 92.1599 1209.95 104.867 1207.67 119.731C1204.75 138.734 1197.5 151.382 1182.68 163.244C1178.18 166.858 1175.52 168.403 1171.57 169.802C1169.17 170.647 1162.13 172.309 1161.89 172.075C1161.86 172.017 1163.12 170.618 1164.7 168.986C1175.43 157.969 1180.69 146.02 1180.11 134.012C1179.4 119.498 1171.13 106.849 1158.53 101.049C1152.04 98.0763 1146.34 96.8522 1138.68 96.8522C1134.09 96.8522 1133.27 96.9105 1130.79 97.5808C1118.07 100.991 1108.36 112.62 1105 128.416C1104.1 132.759 1104.07 139.987 1104.97 143.572C1107.37 153.102 1113.28 163.507 1122.08 173.707C1123.19 174.99 1124.03 176.039 1124 176.097C1123.95 176.127 1122.57 175.835 1120.91 175.485C1112.81 173.649 1104.36 172.862 1095.71 173.095C1078.49 173.62 1066.76 177.642 1049.08 189.183C1040.13 195.042 1031.1 202.59 1026.89 207.778L1025.78 209.148L1027.06 210.692C1029.52 213.52 1034.75 218.445 1038.26 221.243C1047.85 228.85 1061.38 237.04 1069.89 240.333C1084.27 245.958 1104.51 246.774 1121.96 242.49C1122.98 242.256 1123.89 242.082 1123.95 242.169C1124 242.227 1123.33 243.102 1122.43 244.151C1114.74 252.924 1109.39 261.696 1105.91 271.227C1105.76 271.635 1105.35 273.121 1105 274.578C1104.45 276.793 1104.36 277.988 1104.36 282.156C1104.36 286.528 1104.48 287.519 1105.18 290.579C1107.19 299.206 1110.73 306.113 1115.97 311.622C1122.72 318.762 1131.14 322.143 1140.58 321.502C1160.17 320.219 1173.73 310.164 1178.59 293.377C1181.42 283.467 1180.54 274.462 1175.81 264.669C1173.03 258.986 1169.67 254.293 1164.55 249.135C1162.94 247.503 1161.78 246.162 1162.01 246.162C1163 246.162 1168.59 247.444 1170.9 248.202C1175.78 249.805 1178.73 251.641 1185.75 257.47C1187.91 259.248 1192.76 264.173 1194.23 266.039C1203.05 277.434 1207.26 289.442 1208.55 306.813C1209.43 318.267 1207.18 329.546 1202.32 338.289C1197.44 347.091 1191.07 353.124 1181.74 357.787C1173.41 361.955 1163.85 363.995 1152.42 363.995C1127.89 363.995 1108.19 355.018 1087.52 334.471C1078.37 325.378 1072.96 318.879 1060.04 301.392C1057.99 298.652 1052.82 291.191 1047.62 283.467C1037.7 268.837 1034.96 264.786 1034.61 264.523C1034.52 264.436 1033.58 263.27 1032.56 261.9C1026.92 254.468 1019.4 246.278 1012.1 239.604C999.203 227.83 985.492 218.212 972.307 211.713C969.618 210.372 967.396 209.235 967.396 209.148C967.367 209.06 968.916 208.244 970.816 207.341Z" fill="url(#paint0_linear_445_192)" fill-opacity="0.5"/>
<defs>
<linearGradient id="paint0_linear_445_192" x1="1372" y1="209" x2="0" y2="209" gradientUnits="userSpaceOnUse">
<stop stop-color="white"/>
<stop offset="1" stop-color="white" stop-opacity="0.08"/>
</linearGradient>
</defs>
</svg>
