<svg width="25" height="25" viewBox="0 0 25 25" fill="none" xmlns="http://www.w3.org/2000/svg">
<path d="M10.6992 12.5C10.6992 13.0304 10.9099 13.5391 11.285 13.9142C11.6601 14.2893 12.1688 14.5 12.6992 14.5C13.2297 14.5 13.7384 14.2893 14.1134 13.9142C14.4885 13.5391 14.6992 13.0304 14.6992 12.5C14.6992 11.9696 14.4885 11.4609 14.1134 11.0858C13.7384 10.7107 13.2297 10.5 12.6992 10.5C12.1688 10.5 11.6601 10.7107 11.285 11.0858C10.9099 11.4609 10.6992 11.9696 10.6992 12.5ZM10.6992 6.5C10.6992 7.03043 10.9099 7.53914 11.285 7.91421C11.6601 8.28929 12.1688 8.5 12.6992 8.5C13.2297 8.5 13.7384 8.28929 14.1134 7.91421C14.4885 7.53914 14.6992 7.03043 14.6992 6.5C14.6992 5.96957 14.4885 5.46086 14.1134 5.08579C13.7384 4.71071 13.2297 4.5 12.6992 4.5C12.1688 4.5 11.6601 4.71071 11.285 5.08579C10.9099 5.46086 10.6992 5.96957 10.6992 6.5ZM10.6992 18.5C10.6992 19.0304 10.9099 19.5391 11.285 19.9142C11.6601 20.2893 12.1688 20.5 12.6992 20.5C13.2297 20.5 13.7384 20.2893 14.1134 19.9142C14.4885 19.5391 14.6992 19.0304 14.6992 18.5C14.6992 17.9696 14.4885 17.4609 14.1134 17.0858C13.7384 16.7107 13.2297 16.5 12.6992 16.5C12.1688 16.5 11.6601 16.7107 11.285 17.0858C10.9099 17.4609 10.6992 17.9696 10.6992 18.5Z" fill="#262626"/>
</svg>
