<svg width="18" height="18" viewBox="0 0 18 18" fill="none" xmlns="http://www.w3.org/2000/svg">
<g clip-path="url(#clip0_777_841)">
<path d="M9.00025 3.75018C4.37956 3.75018 0.26213 8.55312 0.0888824 8.75787C-0.0296275 8.89736 -0.0296275 9.10211 0.0888824 9.24235C0.192381 9.36458 1.70587 11.1218 3.88833 12.5213L6.23881 10.1708C6.08581 9.81082 6.00031 9.41556 6.00031 9.00009C6.00031 7.34563 7.34579 6.00015 9.00025 6.00015C9.41576 6.00015 9.81098 6.08565 10.171 6.23864L12.1037 4.30592C11.1617 3.96917 10.1275 3.75018 9.00025 3.75018Z" fill="#9D9D9D"/>
<path d="M17.9324 8.7863C17.8364 8.64754 16.2442 6.40657 13.5675 4.9621L15.6397 2.88988C15.786 2.74363 15.786 2.50587 15.6397 2.35962C15.4935 2.21338 15.2557 2.21338 15.1095 2.35962L2.35969 15.1095C2.21344 15.2557 2.21344 15.4935 2.35969 15.6397C2.43242 15.7132 2.52843 15.75 2.62444 15.75C2.72045 15.75 2.81643 15.7132 2.88994 15.6405L5.24115 13.2893C6.39989 13.8547 7.67787 14.25 8.99934 14.25C13.62 14.25 17.7375 9.44705 17.9107 9.2423C18.0195 9.11254 18.0292 8.9258 17.9324 8.7863ZM8.99934 12C8.30708 12 7.67787 11.7548 7.16937 11.3603L11.3596 7.17012C11.754 7.67861 11.9993 8.30786 11.9993 9.00008C11.9993 10.6545 10.6538 12 8.99934 12Z" fill="#9D9D9D"/>
</g>
<defs>
<clipPath id="clip0_777_841">
<rect width="18" height="18" fill="white"/>
</clipPath>
</defs>
</svg>
