<svg width="16" height="17" viewBox="0 0 16 17" fill="none" xmlns="http://www.w3.org/2000/svg">
<path fill-rule="evenodd" clip-rule="evenodd" d="M6.54247 13.46L11.4238 7.14749C11.6891 6.80708 11.7835 6.41352 11.695 6.01279C11.6184 5.64849 11.3944 5.30211 11.0583 5.03933L10.2389 4.38837C9.52553 3.82102 8.64122 3.88074 8.13422 4.5317L7.58595 5.24298C7.51521 5.33197 7.53289 5.46335 7.62132 5.53502C7.62132 5.53502 9.00673 6.64583 9.03621 6.66972C9.13054 6.7593 9.20128 6.87875 9.21897 7.02208C9.24844 7.30277 9.0539 7.56554 8.76502 7.60137C8.62943 7.61929 8.49973 7.57748 8.40541 7.49985L6.94925 6.34125C6.87851 6.2881 6.77239 6.29945 6.71344 6.37112L3.25286 10.8502C3.02883 11.1309 2.95219 11.4952 3.02883 11.8475L3.47099 13.7646C3.49457 13.8661 3.583 13.9378 3.68911 13.9378L5.63458 13.9139C5.98831 13.9079 6.31845 13.7467 6.54247 13.46ZM9.26436 12.8628H12.4367C12.7462 12.8628 12.9979 13.1179 12.9979 13.4314C12.9979 13.7455 12.7462 13.9999 12.4367 13.9999H9.26436C8.95486 13.9999 8.70312 13.7455 8.70312 13.4314C8.70312 13.1179 8.95486 12.8628 9.26436 12.8628Z" fill="#262626"/>
</svg>
